<svg xmlns="http://www.w3.org/2000/svg" xmlns:xlink="http://www.w3.org/1999/xlink" width="133" height="22" viewBox="0 0 133 22">
<path fill="currentColor" d="M80.0536 14.2601C80.0536 11.877 81.7747 9.99706 83.946 9.99706C86.1172 9.99706 87.7059 11.8241 87.7059 14.2601C87.7059 16.6961 86.0907 18.576 83.946 18.576C81.8012 18.576 80.0536 16.6696 80.0536 14.2601ZM72.5868 20.9061H75.6318V7.66697H72.5868V20.9061ZM72.1102 3.24509C72.1102 4.38366 73.0369 5.3104 74.1225 5.3104C75.2081 5.3104 76.1084 4.38366 76.1084 3.24509C76.1084 2.18596 75.2081 1.28569 74.1225 1.28569C73.0369 1.28569 72.1102 2.18596 72.1102 3.24509ZM60.1684 14.2336C60.1684 11.8505 61.916 9.99706 64.1667 9.99706C66.4173 9.99706 68.1649 11.8505 68.1649 14.2336C68.1649 16.6166 66.3908 18.576 64.1667 18.576C61.9425 18.576 60.1684 16.6431 60.1684 14.2336ZM57.0705 14.2336C57.0705 18.2053 60.1949 21.3298 64.1667 21.3298C68.1384 21.3298 71.2628 18.2053 71.2628 14.2336C71.2628 10.2618 68.1914 7.24331 64.1667 7.24331C60.142 7.24331 57.0705 10.2883 57.0705 14.2336ZM48.8357 20.9061H51.8807V13.9688C51.8807 11.2151 53.337 9.99706 55.773 9.99706C56.2232 9.99706 56.5674 10.0235 56.8851 10.103V7.42866C56.5674 7.32275 56.0114 7.24331 55.4024 7.24331C51.2717 7.24331 48.8357 9.83819 48.8357 13.9688V20.9061ZM36.6292 14.2601C36.6292 11.877 38.3503 9.99706 40.5216 9.99706C42.6928 9.99706 44.2815 11.8241 44.2815 14.2601C44.2815 16.6961 42.6663 18.576 40.5216 18.576C38.3768 18.576 36.6292 16.6696 36.6292 14.2601ZM33.5313 14.2601C33.5313 18.0994 36.6028 21.3298 40.2303 21.3298C41.7396 21.3298 43.1164 20.7208 43.9373 19.7146H44.0696V20.9061H47.1147V0.226562H44.0696V8.75258H43.9373C43.1429 7.79936 41.766 7.24331 40.2303 7.24331C36.5763 7.24331 33.5313 10.4472 33.5313 14.2601ZM20.1862 20.9061H23.2312V13.148C23.2312 11.2945 24.4757 9.99706 26.1968 9.99706C27.9179 9.99706 29.1624 11.2945 29.1624 13.148V20.9061H32.2074V13.148C32.2074 9.91762 29.639 7.24331 26.1968 7.24331C22.7546 7.24331 20.1862 9.91762 20.1862 13.148V20.9061ZM6.20569 12.9626L9.48899 3.56283H9.64786L12.9312 12.9626H6.20569ZM0.00976562 20.9061H3.45194L5.17303 15.9812H13.9638L15.6849 20.9061H19.1271L11.4749 0.226562H7.66199L0.00976562 20.9061ZM83.6547 21.3298C85.164 21.3298 86.5408 20.7208 87.3617 19.7146H87.494V20.9061H90.5391V0.226562H87.494V8.75258H87.3617C86.5673 7.79936 85.1904 7.24331 83.6547 7.24331C80.0007 7.24331 76.9557 10.4472 76.9557 14.2601C76.9557 18.0729 80.0272 21.3298 83.6547 21.3298Z"></path>
</svg>